HIERARCHY
ROOT root
{
	OFFSET 0.000000 0.000000 0.000000
	CHANNELS 6 Xposition Yposition Zposition Zrotation Yrotation Xrotation
	JOINT lhip
	{
		OFFSET 0.058581 -0.082280 -0.017664
		CHANNELS 3 Zrotation Yrotation Xrotation
		JOINT lknee
		{
			OFFSET 0.043451 -0.386469 0.008037
			CHANNELS 3 Zrotation Yrotation Xrotation
			JOINT lankle
			{
				OFFSET -0.014790 -0.426874 -0.037428
				CHANNELS 3 Zrotation Yrotation Xrotation
				JOINT ltoe
				{
					OFFSET 0.041054 -0.060286 0.122042
					CHANNELS 3 Zrotation Yrotation Xrotation
					End Site
					{
						OFFSET 0.000000 0.000000 0.000000
					}
				}
			}
		}
	}
	JOINT rhip
	{
		OFFSET -0.060310 -0.090513 -0.013543
		CHANNELS 3 Zrotation Yrotation Xrotation
		JOINT rknee
		{
			OFFSET -0.043257 -0.383688 -0.004843
			CHANNELS 3 Zrotation Yrotation Xrotation
			JOINT rankle
			{
				OFFSET 0.019056 -0.420046 -0.034562
				CHANNELS 3 Zrotation Yrotation Xrotation
				JOINT rtoe
				{
					OFFSET -0.034840 -0.062106 0.130323
					CHANNELS 3 Zrotation Yrotation Xrotation
					End Site
					{
						OFFSET 0.000000 0.000000 0.000000
					}
				}
			}
		}
	}
	JOINT lowerback
	{
		OFFSET 0.004439 0.124404 -0.038385
		CHANNELS 3 Zrotation Yrotation Xrotation
		JOINT upperback
		{
			OFFSET 0.004488 0.137956 0.026820
			CHANNELS 3 Zrotation Yrotation Xrotation
			JOINT chest
			{
				OFFSET -0.002265 0.056032 0.002855
				CHANNELS 3 Zrotation Yrotation Xrotation
				JOINT lowerneck
				{
					OFFSET -0.013390 0.211636 -0.033468
					CHANNELS 3 Zrotation Yrotation Xrotation
					JOINT upperneck
					{
						OFFSET 0.010113 0.088937 0.050410
						CHANNELS 3 Zrotation Yrotation Xrotation
						End Site
						{
							OFFSET 0.000000 0.000000 0.000000
						}
					}
				}
				JOINT lclavicle
				{
					OFFSET 0.071702 0.114000 -0.018898
					CHANNELS 3 Zrotation Yrotation Xrotation
					JOINT lshoulder
					{
						OFFSET 0.122921 0.045205 -0.019046
						CHANNELS 3 Zrotation Yrotation Xrotation
						JOINT lelbow
						{
							OFFSET 0.255332 -0.015649 -0.022946
							CHANNELS 3 Zrotation Yrotation Xrotation
							JOINT lwrist
							{
								OFFSET 0.265709 0.012698 -0.007375
								CHANNELS 3 Zrotation Yrotation Xrotation
								End Site
								{
									OFFSET 0.000000 0.000000 0.000000
								}
							}
						}
					}
				}
				JOINT rclavicle
				{
					OFFSET -0.082954 0.112472 -0.023707
					CHANNELS 3 Zrotation Yrotation Xrotation
					JOINT rshoulder
					{
						OFFSET -0.113228 0.046853 -0.008472
						CHANNELS 3 Zrotation Yrotation Xrotation
						JOINT relbow
						{
							OFFSET -0.260127 -0.014369 -0.031269
							CHANNELS 3 Zrotation Yrotation Xrotation
							JOINT rwrist
							{
								OFFSET -0.269108 0.006794 -0.006027
								CHANNELS 3 Zrotation Yrotation Xrotation
								End Site
								{
									OFFSET 0.000000 0.000000 0.000000
								}
							}
						}
					}
				}
			}
		}
	}
}
MOTION
Frames: 17
Frame Time: 0.033333
0.019988 0.253716 1.003683 85.576687 -1.142756 79.891023 2.710301 2.608285 6.162954 -4.345850 1.176593 14.542844 0.378534 11.556274 -10.222074 0.000000 -0.000000 0.000000 -4.513912 -3.288200 1.432877 -0.111256 -0.833140 20.608451 4.309119 -7.577364 -12.312263 0.000000 -0.000000 0.000000 0.284761 2.274348 8.414269 -1.937348 -0.084187 2.221821 -2.906915 1.643589 2.285310 2.695196 -1.162752 1.916434 -0.211005 2.879783 12.493691 -16.775475 -5.809249 3.485633 -50.844385 -3.330674 17.923980 -14.421328 -82.998548 26.776613 9.390057 -8.427051 -54.893010 5.036003 14.390739 -5.975956 32.721319 33.561213 3.928327 -100.253278 57.870520 -92.288757 -0.870011 3.796917 -34.779498 
0.022567 0.251991 1.005377 86.043414 -1.219544 80.087807 2.454022 2.022850 6.629545 -4.248448 1.178517 13.433662 0.459483 11.523372 -9.785750 0.000000 -0.000000 0.000000 -4.664413 -3.456801 1.923132 -0.219772 -1.460705 19.634491 4.539664 -7.164058 -11.961908 0.000000 -0.000000 0.000000 -0.165992 2.573611 7.631641 -0.989515 0.176283 2.103272 -2.270725 2.038454 2.537866 1.663309 -0.825672 1.519145 -0.422841 1.482053 13.301645 -15.329901 -3.774822 2.221566 -51.763663 -5.706480 17.803964 60.593374 -88.659581 -49.616405 11.357510 -6.148063 -60.072283 7.626213 11.892137 -5.159109 37.220448 31.132992 7.068519 -104.950050 57.050141 -96.632948 -0.194095 4.343932 -36.707089 
0.024426 0.250762 1.007078 86.898451 -1.292272 80.315732 2.248511 1.356886 6.915365 -4.243676 0.942598 12.409131 0.474727 11.500856 -9.251925 0.000000 -0.000000 0.000000 -4.816860 -3.782448 2.413473 -0.368614 -2.234044 18.668360 4.817835 -6.853341 -11.538814 0.000000 -0.000000 0.000000 -0.309123 2.720155 7.359248 -0.453606 0.271298 1.428196 -1.859147 2.293218 2.854763 0.683273 -0.971985 1.430695 -0.326139 0.572553 14.076232 -13.364827 -1.961656 0.722976 -53.245971 -7.993802 17.574818 132.143344 -83.358041 -122.478483 13.316003 -3.411990 -66.695498 8.710446 9.354326 -4.839529 41.686010 28.276595 9.417701 -107.054037 54.644055 -98.734514 -0.752036 4.645498 -38.489905 
0.025882 0.250408 1.008868 87.864956 -1.335356 80.722365 2.078709 0.780669 6.845682 -4.204085 0.634940 11.708537 0.428339 11.358424 -8.885763 0.000000 -0.000000 0.000000 -4.918557 -4.199132 2.704373 -0.517676 -2.996206 17.750533 5.067107 -6.618827 -11.188229 0.000000 -0.000000 0.000000 -0.404432 2.697371 6.705874 -0.041263 0.249682 1.079303 -1.439747 2.559915 3.287897 -0.494535 -1.540213 1.978343 0.086887 0.049151 14.037122 -11.132566 -0.161689 -0.543173 -55.017725 -10.271972 16.933056 131.926532 -77.529217 -124.178261 14.815230 -0.681433 -71.997483 8.382485 6.859342 -4.981322 46.006223 25.553277 10.490105 -106.955617 51.545591 -99.311032 -0.531282 4.824217 -40.808835 
0.027331 0.250777 1.010801 88.755265 -1.440488 80.923620 1.887748 0.405587 7.057835 -4.136430 0.238154 10.888042 0.305114 11.199045 -8.362305 0.000000 -0.000000 0.000000 -5.031045 -4.704256 3.268016 -0.810504 -3.678984 16.697188 5.282838 -6.298718 -10.711610 0.000000 -0.000000 0.000000 -0.329449 2.593919 6.499123 0.065641 0.140333 0.560743 -1.183215 2.820613 3.631259 -1.734563 -2.422962 3.082794 0.887497 -0.115964 13.964426 -8.886993 1.639866 -1.636859 -56.760820 -12.269194 16.127680 127.467629 -72.462722 -122.481520 16.356153 2.142571 -77.232181 7.274360 4.461286 -5.579381 50.474702 22.896694 11.146417 -105.400253 48.027697 -99.661989 0.083786 5.222996 -44.285569 
0.028238 0.251275 1.012542 89.476141 -1.566949 81.240672 1.684880 0.159445 6.968178 -4.069478 -0.152683 10.307525 0.273590 11.194713 -7.901834 0.000000 -0.000000 0.000000 -5.140705 -5.072312 3.483571 -1.000388 -4.139499 15.898695 5.427887 -6.117712 -10.382479 0.000000 -0.000000 0.000000 -0.142208 2.422113 6.306408 0.052506 0.050916 -0.115602 -1.125300 3.049044 4.070921 -2.592835 -3.209749 4.013322 1.422265 -0.268644 14.374756 -6.993589 3.578614 -2.526032 -57.865171 -13.874123 14.758833 122.959423 -68.359670 -119.541688 17.281075 4.593694 -81.134629 6.196147 2.224593 -6.007805 54.581042 20.606930 11.192074 -103.566973 44.486999 -98.960079 0.389421 5.901350 -47.205264 
0.029346 0.251806 1.013779 89.955075 -1.626809 81.521932 1.617550 0.071285 7.014221 -3.994874 -0.382000 9.698401 0.250863 11.077653 -7.418622 0.000000 -0.000000 0.000000 -5.232471 -5.404140 3.746579 -1.068799 -4.548058 15.170237 5.522968 -5.939377 -9.984941 0.000000 -0.000000 0.000000 0.106238 2.056427 6.523967 -0.010835 0.027051 -1.116921 -1.069847 3.328643 4.503850 -3.243754 -3.753200 4.643679 1.692566 -0.346284 14.693794 -5.966812 6.044784 -3.323213 -58.787222 -15.033374 12.959074 118.511169 -65.090129 -115.791478 17.465303 6.036932 -83.601091 5.438268 -0.058964 -6.358184 57.773461 18.448032 10.970092 -101.659883 41.687948 -97.374061 -0.506700 6.063068 -48.138468 
0.029991 0.251687 1.014269 90.057018 -1.731698 81.809571 1.480767 -0.100205 6.967255 -3.959908 -0.370398 9.368399 0.200094 11.109546 -7.290625 0.000000 -0.000000 0.000000 -5.347820 -5.503844 3.702721 -1.064766 -4.687699 14.881083 5.675212 -5.789038 -9.779223 0.000000 -0.000000 0.000000 0.410450 2.304475 6.329477 -0.033803 0.431476 -1.411771 -1.232047 3.057633 5.180786 -3.244706 -4.061773 4.320370 1.651621 -0.761681 14.867518 -5.939092 8.198160 -3.977658 -59.145745 -16.349981 11.413287 113.870021 -61.862960 -112.088352 17.623556 6.742763 -84.989595 5.876445 -2.907114 -6.936434 59.693709 16.999319 10.455412 -99.065001 39.898791 -94.977416 -1.457527 5.996842 -48.311245 
0.030256 0.251243 1.014142 89.963061 -1.757557 82.189737 1.441407 -0.142250 6.614506 -3.959877 -0.465107 9.430091 0.172953 11.240545 -7.386468 0.000000 -0.000000 0.000000 -5.319164 -5.459126 3.264198 -1.047927 -4.582663 15.030095 5.683492 -5.870204 -9.815814 0.000000 -0.000000 0.000000 0.542001 2.127849 6.495035 -0.021089 0.800395 -2.142064 -1.261818 3.005908 5.697300 -2.950209 -4.216931 3.538603 1.425954 -0.810859 15.294658 -6.789619 10.907484 -4.561484 -59.279545 -17.148263 9.805884 109.792123 -59.269211 -108.377994 17.198476 6.970449 -86.784257 7.100255 -5.552050 -7.356422 60.359792 15.823212 9.848888 -95.261897 38.763895 -92.576402 -1.694948 6.195024 -50.500476 
0.030510 0.250609 1.013765 89.753375 -1.782920 82.378600 1.391378 -0.161336 6.417842 -3.967566 -0.416037 9.650318 0.158152 11.404655 -7.607257 0.000000 -0.000000 0.000000 -5.341495 -5.245963 2.976083 -0.943630 -4.541493 15.266083 5.724688 -5.965277 -9.841835 0.000000 -0.000000 0.000000 0.662815 1.944989 6.779871 -0.087742 1.223608 -2.687249 -1.262721 2.745255 6.187122 -2.560050 -4.390021 2.462068 1.219162 -0.675138 15.846662 -8.282031 13.278847 -4.879911 -59.534200 -17.513518 8.710838 105.427148 -56.351834 -105.889020 17.736978 7.548563 -87.217893 8.876501 -7.632259 -7.883193 60.218660 14.782038 9.434649 -89.877255 37.779501 -91.084420 -2.155386 5.988278 -54.517038 
0.030796 0.250109 1.013051 89.614813 -1.811432 82.351148 1.336578 -0.209405 6.465722 -4.038463 -0.534781 9.857879 0.142606 11.591578 -7.910442 0.000000 -0.000000 0.000000 -5.374556 -5.033816 2.865367 -0.839750 -4.322044 15.562776 5.689604 -6.153595 -10.024341 0.000000 -0.000000 0.000000 0.627806 1.719757 7.110509 -0.093891 1.428315 -3.021309 -1.123775 2.577123 6.576989 -2.373841 -4.576015 1.730702 1.206614 -0.354847 16.216899 -9.989096 14.888587 -4.678122 -59.831890 -17.228425 7.839758 100.603803 -53.495000 -103.649347 18.937500 9.304020 -88.125066 10.866075 -8.810567 -8.031772 59.396289 13.732056 8.874413 -84.184858 36.393250 -90.132331 -3.720734 4.577209 -59.040011 
0.031622 0.249618 1.012318 89.690647 -1.917890 82.254789 1.229213 -0.292025 6.628798 -4.167158 -0.636496 10.018348 0.246315 11.748575 -8.215279 0.000000 -0.000000 0.000000 -5.507825 -4.957686 2.898928 -0.753822 -4.165022 15.896531 5.579907 -6.307650 -10.261311 0.000000 -0.000000 0.000000 0.568269 1.716777 7.178084 -0.064285 1.407902 -2.868263 -0.957481 2.331291 6.602047 -2.716307 -4.864073 1.844881 1.321545 0.195837 16.077365 -11.631791 15.265574 -3.954768 -60.294496 -16.401117 7.157864 95.401960 -50.387257 -102.735707 19.452925 11.372241 -89.031140 12.543920 -9.473793 -7.789676 58.918860 12.213623 8.213784 -79.928188 34.833189 -89.997563 -3.350162 4.052128 -60.535981 
0.031583 0.249572 1.011484 89.787932 -2.012705 82.144126 1.149573 -0.424343 6.565191 -4.381750 -0.751472 10.482323 0.478675 12.015157 -8.550927 0.000000 -0.000000 0.000000 -5.572917 -4.702066 2.621124 -0.667175 -3.975319 16.713885 5.413824 -6.748792 -10.728338 0.000000 -0.000000 0.000000 0.620182 1.661935 7.836424 -0.037614 1.358353 -3.410801 -0.890991 2.243523 6.638447 -2.828067 -4.881921 2.062644 1.373645 0.523407 16.005721 -12.844815 15.646416 -3.134541 -60.536947 -15.527124 6.455430 90.418037 -48.996775 -101.336752 19.561192 13.108001 -90.362158 13.346989 -10.364018 -7.359190 59.485500 10.340686 8.131570 -77.726543 34.140308 -89.663450 -4.213354 3.267862 -61.622805 
0.031172 0.249495 1.010442 89.920079 -2.122450 81.991093 1.106442 -0.315050 6.344448 -4.584161 -1.029361 11.220817 0.607998 12.195088 -8.949794 0.000000 -0.000000 0.000000 -5.587815 -4.478793 2.224988 -0.724846 -3.824590 17.796943 5.257242 -7.093495 -11.290915 0.000000 -0.000000 0.000000 0.584387 1.412541 8.565900 -0.083929 1.215450 -4.017744 -0.913072 2.202451 6.706759 -2.664574 -4.727691 2.418003 1.518485 0.742841 15.975544 -13.219413 16.236984 -2.749608 -60.815221 -14.501540 5.889851 86.620627 -49.128264 -98.759605 19.752931 13.938636 -89.968765 13.452418 -11.196441 -7.086116 60.584409 8.920998 8.313055 -76.389695 34.248790 -89.237613 -4.835284 1.994483 -62.741865 
0.030950 0.249376 1.009309 90.013294 -2.195815 81.644225 1.103324 -0.243455 6.508422 -4.735304 -1.209477 11.631119 0.654934 12.327957 -9.191608 0.000000 -0.000000 0.000000 -5.694786 -4.390917 2.203190 -0.677841 -3.753022 18.598088 5.226854 -7.230016 -11.699810 0.000000 -0.000000 0.000000 0.602885 1.263675 8.906107 -0.158869 1.033093 -3.885990 -0.975840 2.041837 6.825756 -2.600198 -4.763992 2.816979 1.835974 0.996124 15.805154 -13.482460 16.123769 -2.471116 -60.831939 -14.037730 5.618910 85.516789 -48.998835 -97.746576 19.557640 13.903781 -89.933215 13.299688 -11.463085 -6.982340 61.080434 8.213322 8.261213 -75.663368 34.792654 -88.552956 -4.059809 2.230770 -63.470249 
0.030322 0.249038 1.008312 89.648991 -2.352377 81.508472 1.022245 -0.119289 6.630765 -4.870080 -1.056164 11.780952 0.687659 12.564014 -9.505342 0.000000 -0.000000 0.000000 -5.868615 -4.107487 1.711364 -0.574864 -3.590865 19.659848 5.217732 -7.190202 -12.113462 0.000000 -0.000000 0.000000 0.537994 1.265979 9.094255 -0.226406 1.100592 -3.804977 -1.087830 1.945195 6.814733 -2.359064 -4.647668 3.164633 1.874713 1.173612 16.016189 -13.601619 15.719662 -2.460389 -60.165450 -13.853205 5.439726 85.439709 -48.775030 -97.588186 19.343984 12.975126 -89.642939 13.343730 -11.188338 -7.042229 60.464909 8.100904 8.195454 -75.262146 34.966360 -88.144823 -2.975740 2.860765 -63.578743 
0.029771 0.248524 1.007264 88.905293 -2.557069 81.459522 0.996460 0.231096 6.633697 -5.094757 -0.790437 12.028251 0.749461 12.638141 -9.667256 0.000000 -0.000000 0.000000 -6.018895 -3.779907 0.973213 -0.504585 -3.204399 20.875182 5.196473 -7.167944 -12.576418 0.000000 -0.000000 0.000000 0.523867 1.312667 9.065167 -0.274132 1.353184 -3.606995 -1.205798 1.969925 6.820127 -2.297528 -4.476101 3.456775 1.682765 1.244184 16.321879 -13.507228 15.021582 -2.558800 -59.240405 -14.261838 5.134530 84.752234 -48.431609 -96.626404 19.024802 11.980496 -89.554250 13.173448 -10.572533 -6.990148 59.497212 8.654485 7.955521 -74.984218 34.845364 -87.780046 -2.635239 3.227376 -63.327562 
